<svg width="127" height="142" viewBox="0 0 127 142" fill="none" xmlns="http://www.w3.org/2000/svg">
<path d="M104.306 67.9084L82.5784 56.3964C83.7604 56.1153 84.9317 55.7782 86.0837 55.3795C90.9938 53.6798 95.3825 51.0203 99.1277 47.4747C100.267 46.3964 100.668 44.7341 100.151 43.2399L96.4555 32.5628C96.1434 31.6607 95.1586 31.1827 94.2566 31.4948C93.3544 31.8071 92.8764 32.7914 93.1884 33.6935L96.884 44.3708C96.9581 44.5845 96.9057 44.8173 96.7508 44.9639C93.3648 48.1696 89.3952 50.5747 84.9526 52.1122C82.592 52.9293 80.1482 53.4769 77.6883 53.7396C77.656 53.743 77.6244 53.7495 77.5927 53.7546L69.4098 49.4191L63.2035 31.4879C67.9344 31.7652 72.6197 31.1136 77.1431 29.5482C81.6658 27.9826 85.7511 25.5984 89.2989 22.4558L90.544 26.0534C90.8564 26.956 91.8408 27.4337 92.7431 27.1215C93.6453 26.8093 94.1231 25.8248 93.8111 24.9227L92.2796 20.4989C91.9598 19.5746 91.2016 18.8811 90.2528 18.6452C89.306 18.4093 88.3146 18.6649 87.601 19.3289C84.2586 22.4376 80.3596 24.777 76.0122 26.2819C71.6645 27.7865 67.1536 28.3581 62.6047 27.9808C61.6331 27.9003 60.6958 28.3121 60.0976 29.0828C59.4978 29.8555 59.3306 30.8686 59.6505 31.7929L64.9301 47.0461L54.9543 41.7606C54.1106 41.3136 53.0646 41.6352 52.6177 42.4788C52.1707 43.3223 52.4921 44.3684 53.3358 44.8154L102.687 70.9634C103.53 71.4096 103.852 72.4577 103.406 73.3L100.584 78.6261C100.137 79.4684 99.0893 79.7905 98.247 79.3442L36.4281 46.5907C35.5858 46.1444 35.2637 45.0964 35.71 44.2541L38.5319 38.928C38.9782 38.0857 40.0262 37.7636 40.8685 38.2099L45.7798 40.812C46.6235 41.259 47.6695 40.9374 48.1164 40.0939C48.5633 39.2503 48.242 38.2043 47.3983 37.7572L42.487 35.1551C39.9605 33.8165 36.8158 34.7828 35.4771 37.3095L32.6552 42.6356C31.3165 45.1623 32.2831 48.3068 34.8096 49.6454L35.4332 49.9758L14.5869 102.046C12.7134 106.727 14.6598 112.036 19.1144 114.396L51.8836 131.758C56.3383 134.119 61.8245 132.747 64.6448 128.568L96.0198 82.0764L96.6285 82.3989C99.155 83.7376 102.3 82.7713 103.638 80.2446L106.46 74.9185C107.799 72.3918 106.833 69.2471 104.306 67.9084ZM61.5009 127.013L60.8316 124.836L63.5586 123.997C63.5588 123.998 61.5973 126.891 61.5009 127.013ZM38.5055 51.6036L43.789 54.403L39.5824 55.6958L38.403 51.8589L38.5055 51.6036ZM87.3645 88.7215L84.0892 93.5752L82.3302 94.1158L80.4509 88.001L86.5657 86.1217L87.3645 88.7215ZM22.423 91.7745L24.7622 85.9313L26.2012 90.6133L22.423 91.7745ZM37.2934 60.016L39.1727 66.1308L33.0579 68.0101L32.57 66.4293L34.835 60.7716L37.2934 60.016ZM71.3184 70.0546L73.1977 76.1694L69.1828 77.4034C68.2629 76.1466 67.1825 74.9914 65.9522 73.9719L65.3153 71.8994L71.3184 70.0546ZM46.2302 102.805C38.5178 98.7191 35.5677 89.1202 39.654 81.4077C43.7403 73.6953 53.3392 70.7452 61.0516 74.8315C68.7641 78.9178 71.7141 88.5167 67.6278 96.2291C63.5416 103.942 53.9427 106.892 46.2302 102.805ZM27.1293 80.0189L30.1287 72.5271L30.7689 72.3304L32.6138 78.3333L27.1293 80.0189ZM34.0736 71.3146L40.1884 69.4353L41.533 73.81C40.5765 74.5795 39.6879 75.4474 38.8813 76.4071L35.9184 77.3177L34.0736 71.3146ZM71.0102 80.4587L74.2136 79.4742L76.1307 85.712L72.8067 86.7336C72.5663 84.5556 71.9568 82.432 71.0102 80.4587ZM58.8825 70.26C57.3649 69.831 55.8212 69.5961 54.2834 69.5473L53.0357 65.487L59.1505 63.6077L60.9955 69.6107L58.8825 70.26ZM50.7324 69.7615C48.5694 70.0944 46.4725 70.7911 44.5388 71.8229L43.4929 68.4198L49.7308 66.5027L50.7324 69.7615ZM42.4774 65.115L40.5981 59.0002L46.836 57.0831L48.7153 63.1979L42.4774 65.115ZM27.6265 83.4829L33.6298 81.6379L34.7113 85.1341C34.52 86.1204 34.4062 87.1125 34.3711 88.1027L29.5062 89.5979L27.6265 83.4829ZM34.5749 91.6567C34.8999 93.821 35.5881 95.9204 36.6126 97.8575L32.4384 99.1404L30.5213 92.9025L34.5749 91.6567ZM38.5869 100.867C39.0392 101.434 39.5246 101.978 40.0439 102.495L41.3365 106.714L35.3332 108.559L33.4539 102.445L38.5869 100.867ZM42.3523 110.019L44.1972 116.022L38.194 117.867L36.3491 111.864L42.3523 110.019ZM45.6569 109.004L49.8265 107.721C50.5658 107.869 51.3088 107.976 52.0519 108.036L53.6166 113.127L47.5018 115.007L45.6569 109.004ZM55.6551 107.992C57.8345 107.76 59.9607 107.159 61.9373 106.219L63.1589 110.194L56.9211 112.111L55.6551 107.992ZM64.9956 104.402C65.8514 103.781 66.6586 103.084 67.4107 102.318L70.7333 101.297L72.5783 107.3L66.4638 109.179L64.9956 104.402ZM72.3365 110.991L68.684 116.403L67.4794 112.483L72.3365 110.991ZM75.767 105.907L74.038 100.281L80.041 98.4359L80.2812 99.2176L75.767 105.907ZM73.0223 96.9765L72.1653 94.1878C72.5344 92.9157 72.7634 91.6244 72.8633 90.3331L77.1462 89.0168L79.0255 95.1316L73.0223 96.9765ZM79.435 84.6965L77.5179 78.4586L83.6327 76.5793L85.5498 82.8172L79.435 84.6965ZM76.5024 75.1538L75.2474 71.0703L80.5856 73.8987L76.5024 75.1538ZM64.2998 68.5951L63.0791 64.6235L68.2714 67.3745L64.2998 68.5951ZM52.0199 62.1823L50.7651 58.0989L56.1034 60.9273L52.0199 62.1823ZM18.9303 100.499L19.7146 103.05L17.6696 103.679C17.7088 103.563 18.9303 100.499 18.9303 100.499ZM21.1022 95.7973L27.217 93.918L29.1341 100.156L23.0193 102.035L21.1022 95.7973ZM30.1495 103.46L32.0288 109.575L25.9143 111.454L24.035 105.34L30.1495 103.46ZM27.0901 114.71L33.0444 112.88L34.8744 118.834L27.0901 114.71ZM39.2582 121.157L45.2129 119.327L47.0427 125.281L39.2582 121.157ZM48.5175 118.311L54.6323 116.432L56.5116 122.547L50.3968 124.426L48.5175 118.311ZM57.9367 115.416L64.1746 113.499L66.0539 119.614L59.816 121.531L57.9367 115.416ZM88.8546 81.8017L87.5618 77.5951L92.9475 80.4486L92.8666 80.5685L88.8546 81.8017ZM17.5473 107.333L20.7303 106.355L22.5605 112.31L20.7329 111.342C19.1005 110.477 17.9877 109.001 17.5473 107.333ZM53.5021 128.704L51.5723 127.681L57.527 125.851L58.5299 129.114C56.9219 129.657 55.1087 129.555 53.5021 128.704Z" fill="#977DFF"/>
<path d="M48.2104 88.3321L46.7104 88.4025C46.7671 87.4208 47.0333 86.4615 47.5066 85.5683C49.2987 82.1858 53.5087 80.892 56.8911 82.6841C57.7348 83.1311 58.7808 82.8095 59.2278 81.9659C59.6747 81.1224 59.3533 80.0764 58.5096 79.6293C53.4426 76.9447 47.1364 78.8829 44.4518 83.9498C43.696 85.3763 43.2873 86.9629 43.2474 88.5648L41.821 88.6317C40.9933 88.6704 40.6331 89.6968 41.255 90.2444L44.4272 93.0372C44.8938 93.4479 45.6018 93.4146 46.0277 92.9622L48.9248 89.8848C49.4927 89.2815 49.0382 88.2934 48.2104 88.3321Z" fill="#977DFF"/>
<path d="M66.0544 88.0858L62.8822 85.2929C62.4157 84.8822 61.7077 84.9155 61.2817 85.3679L58.3847 88.4453C57.8167 89.0487 58.2712 90.0369 59.099 89.998L60.4957 89.9326C60.3757 90.671 60.1349 91.3898 59.7753 92.0686C58.0103 95.3999 53.8435 96.7161 50.487 95.003C49.6367 94.5689 48.5956 94.9064 48.1616 95.7565C47.7315 96.5988 48.0587 97.6284 48.8914 98.0696C48.8992 98.0737 48.9071 98.0779 48.9151 98.0819C53.9439 100.649 60.1861 98.6773 62.83 93.6871C63.4846 92.4518 63.8767 91.1267 63.9997 89.7683L65.4884 89.6985C66.3162 89.6597 66.6766 88.6334 66.0544 88.0858Z" fill="#977DFF"/>
<path d="M73.3699 136.165L66.3813 131.505L67.5264 129.788L70.212 131.579L72.1294 128.703L69.4438 126.913L70.5889 125.195L77.5776 129.856L76.4324 131.573L73.6969 129.749L71.7795 132.624L74.515 134.448L73.3699 136.165ZM73.0656 124.12C72.9013 124.366 72.675 124.518 72.3865 124.576C72.0981 124.634 71.8307 124.58 71.5845 124.416C71.3382 124.252 71.1862 124.026 71.1286 123.737C71.0709 123.449 71.1242 123.181 71.2884 122.935C71.4527 122.689 71.679 122.537 71.9675 122.479C72.2559 122.422 72.5233 122.475 72.7695 122.639C73.0158 122.803 73.1678 123.03 73.2254 123.318C73.2831 123.607 73.2298 123.874 73.0656 124.12ZM74.094 123.638L79.3754 127.16L78.2969 128.777L73.0155 125.255L74.094 123.638ZM81.6904 123.731C81.4419 124.104 81.1367 124.41 80.7751 124.65C80.4178 124.883 80.0395 125.039 79.6401 125.119C79.234 125.194 78.8213 125.193 78.402 125.115C77.976 125.033 77.5766 124.868 77.2039 124.619C76.8312 124.371 76.5283 124.068 76.2954 123.711C76.0669 123.347 75.915 122.962 75.8396 122.556C75.7642 122.15 75.7676 121.734 75.8497 121.308C75.9363 120.875 76.1061 120.469 76.3591 120.09C76.5189 119.85 76.7042 119.637 76.915 119.451C77.1258 119.264 77.3521 119.112 77.594 118.995L77.3145 118.808L78.3797 117.211L83.6112 120.7C84.3234 121.175 84.7116 121.775 84.7758 122.5C84.8467 123.23 84.5893 124.035 84.0034 124.913C83.7238 125.332 83.4153 125.709 83.078 126.041C82.7407 126.374 82.3945 126.648 82.0395 126.863L81.141 125.485C81.465 125.288 81.7535 125.072 82.0065 124.836C82.2594 124.601 82.4791 124.344 82.6655 124.064C82.9185 123.685 83.0328 123.348 83.0085 123.053C82.9841 122.757 82.8188 122.508 82.5127 122.304L82.1832 122.084C82.1832 122.372 82.1421 122.657 82.06 122.939C81.9778 123.221 81.8546 123.485 81.6904 123.731ZM78.2625 123.032C78.6418 123.285 79.0501 123.365 79.4872 123.272C79.9177 123.174 80.2616 122.932 80.519 122.546C80.6655 122.327 80.7654 122.105 80.8187 121.881C80.8764 121.65 80.8886 121.423 80.8554 121.198L78.9884 119.953C78.7754 120.013 78.5735 120.114 78.3826 120.256C78.1851 120.394 78.0176 120.566 77.88 120.772C77.6226 121.158 77.5293 121.572 77.6003 122.013C77.6757 122.448 77.8964 122.788 78.2625 123.032ZM79.0926 115.082C78.9283 115.328 78.702 115.48 78.4136 115.538C78.1251 115.596 77.8577 115.542 77.6115 115.378C77.3652 115.214 77.2132 114.988 77.1556 114.699C77.0979 114.411 77.1512 114.143 77.3155 113.897C77.4797 113.651 77.706 113.499 77.9945 113.441C78.2829 113.384 78.5503 113.437 78.7965 113.601C79.0428 113.765 79.1948 113.992 79.2524 114.28C79.3101 114.569 79.2568 114.836 79.0926 115.082ZM80.121 114.6L85.4024 118.122L84.3239 119.739L79.0425 116.217L80.121 114.6ZM83.2708 115.608C82.8915 115.355 82.5842 115.044 82.3491 114.676C82.1117 114.297 81.9542 113.898 81.8766 113.481C81.8034 113.057 81.8124 112.626 81.9034 112.186C81.9922 111.736 82.1698 111.311 82.4361 110.912C82.7024 110.512 83.0241 110.189 83.4014 109.94C83.7764 109.681 84.1713 109.506 84.5863 109.418C85.0056 109.322 85.4339 109.315 85.871 109.395C86.3058 109.463 86.713 109.624 87.0923 109.877C87.4717 110.13 87.7801 110.447 88.0175 110.826C88.2526 111.194 88.4068 111.59 88.4799 112.014C88.5575 112.431 88.5486 112.863 88.4531 113.309C88.3621 113.748 88.1835 114.168 87.9171 114.567C87.6508 114.966 87.3302 115.296 86.9552 115.555C86.5846 115.808 86.1896 115.982 85.7703 116.078C85.3553 116.166 84.9304 116.176 84.4956 116.107C84.0585 116.027 83.6502 115.861 83.2708 115.608ZM86.5194 113.635C86.7591 113.275 86.8313 112.886 86.7359 112.467C86.645 112.041 86.4132 111.703 86.0404 111.455C85.6611 111.202 85.2572 111.115 84.829 111.195C84.4052 111.268 84.0735 111.484 83.8338 111.844C83.5941 112.203 83.5197 112.596 83.6106 113.022C83.706 113.441 83.9434 113.778 84.3228 114.031C84.6955 114.279 85.0937 114.367 85.5175 114.294C85.9458 114.214 86.2797 113.994 86.5194 113.635ZM86.6848 108.542L89.2613 104.678L90.6091 105.577L88.0326 109.441L86.6848 108.542ZM93.9054 102.559C94.0519 102.339 94.1407 102.105 94.1718 101.857C94.2029 101.608 94.1796 101.333 94.102 101.031L95.7395 100.739C95.8681 101.209 95.8903 101.695 95.8059 102.196C95.7148 102.693 95.5295 103.151 95.2499 103.571C94.988 103.963 94.6718 104.286 94.3012 104.539C93.9351 104.785 93.5446 104.953 93.1296 105.042C92.7192 105.124 92.2987 105.127 91.8683 105.051C91.4423 104.969 91.0362 104.799 90.6502 104.542C90.2642 104.285 89.9513 103.975 89.7118 103.613C89.47 103.241 89.3114 102.851 89.236 102.445C89.1584 102.028 89.1629 101.603 89.2494 101.17C89.3338 100.727 89.5069 100.308 89.7688 99.9157C90.0573 99.4831 90.419 99.1281 90.8539 98.8508C91.2889 98.5735 91.7504 98.4005 92.2385 98.3318L92.6078 100.006C92.2771 100.055 91.9976 100.142 91.769 100.269C91.5405 100.395 91.3485 100.575 91.1932 100.808C90.9624 101.154 90.8969 101.533 90.9967 101.946C91.1009 102.352 91.3427 102.682 91.7221 102.935C92.1015 103.188 92.5008 103.281 92.9202 103.214C93.3373 103.137 93.6658 102.918 93.9054 102.559ZM91.8032 96.0213C91.639 96.2676 91.4127 96.4196 91.1242 96.4772C90.8358 96.5349 90.5684 96.4816 90.3222 96.3174C90.0759 96.1531 89.9239 95.9268 89.8663 95.6384C89.8086 95.3499 89.8619 95.0825 90.0261 94.8363C90.1904 94.59 90.4167 94.4381 90.7052 94.3804C90.9936 94.3227 91.261 94.376 91.5072 94.5403C91.7535 94.7045 91.9055 94.9308 91.9631 95.2193C92.0208 95.5077 91.9675 95.7751 91.8032 96.0213ZM92.8317 95.5389L98.1131 99.0608L97.0346 100.678L91.7532 97.1563L92.8317 95.5389ZM97.669 96.2446L95.3428 94.6933L94.6304 95.7616L93.2826 94.8628L93.9949 93.7945L92.6372 92.8891L93.3663 91.0387L95.0735 92.1772L96.0588 90.6996L97.4066 91.5984L96.4213 93.076L98.428 94.4141C98.661 94.5695 98.8607 94.6305 99.0271 94.5973C99.1913 94.5529 99.3599 94.4009 99.533 94.1414C99.6174 94.0149 99.6906 93.8907 99.7527 93.7686C99.8082 93.6422 99.8604 93.4991 99.9092 93.3393L101.217 94.2115C101.166 94.389 101.078 94.5998 100.954 94.8438C100.836 95.0923 100.727 95.2931 100.625 95.4462C100.203 96.0785 99.7435 96.4645 99.2465 96.6042C98.7472 96.7328 98.2214 96.6129 97.669 96.2446ZM102.911 92.0383L102.901 92.0316L96.1987 90.4898L97.3904 88.7027L101.494 89.7516L99.0748 86.1768L100.24 84.4297L104.213 90.4975C104.703 91.2475 104.963 91.911 104.992 92.4879C105.02 93.0648 104.824 93.6694 104.402 94.3017C104.318 94.4281 104.229 94.5468 104.136 94.6577C104.049 94.7731 103.969 94.8641 103.896 94.9306L102.518 94.0119C102.581 93.9475 102.639 93.881 102.695 93.8122C102.755 93.7368 102.82 93.6458 102.891 93.5393C103.06 93.2864 103.148 93.0324 103.154 92.7772C103.161 92.522 103.08 92.2757 102.911 92.0383Z" fill="#977DFF"/>
</svg>
